<?xml version="1.0" encoding="iso-8859-1"?>
<!-- Uploaded to: SVG Repo, www.svgrepo.com, Generator: SVG Repo Mixer Tools -->
<svg fill="#ffffff"  width="120px" version="1.1" id="Layer_1" xmlns="http://www.w3.org/2000/svg" xmlns:xlink="http://www.w3.org/1999/xlink" 
	 viewBox="0 0 293.516 293.516" xml:space="preserve">
<g>
	<g>
		<g>
			<path d="M280.112,121.566H72.508c-1.832,0-3.316,1.484-3.316,3.32s1.484,3.32,3.316,3.32h207.604c3.732,0,6.768,3.068,6.768,6.84
				v8.136c0,1.836,1.484,3.32,3.32,3.32c1.832,0,3.316-1.488,3.316-3.32v-8.136C293.516,127.614,287.5,121.566,280.112,121.566z"/>
			<path d="M270.872,150.018h-3.36H22.648h-9.244c-3.736,0-6.768-3.068-6.768-6.836v-8.136c0-3.772,3.036-6.84,6.768-6.84h21.684
				c1.836,0,3.316-1.484,3.316-3.32c0-1.832-1.484-3.32-3.316-3.32H18.504c3.62-48.072,60.156-86.632,128.256-86.632
				c73.208,0,119.592,28.296,127.252,77.632c0.28,1.812,1.972,3.064,3.788,2.768c1.812-0.276,3.052-1.976,2.768-3.784
				c-8.216-52.908-56.988-83.256-133.808-83.256c-71.848,0-131.472,41.636-134.908,93.428C5.2,122.506,0,128.146,0,135.042v8.136
				c0,5.508,3.316,10.244,8.032,12.332C3.16,159.666,0,165.774,0,172.666v20.116c0,10.648,7.416,19.548,17.34,21.952
				c1.484,28.504,16.372,50.488,34.632,50.488h189.576c18.256,0,33.148-21.984,34.632-50.488
				c9.924-2.408,17.336-11.304,17.336-21.952v-20.116C293.512,160.178,283.356,150.018,270.872,150.018z M22.64,156.658h244.868
				h3.36c6.444,0,11.976,3.844,14.512,9.344c-2.532-0.032-5.152-0.076-7.876-0.132c-13.836-0.28-28.132-0.576-33.668,1.668
				c-5.088,2.064-6.392,11.016-6.368,15.464c0.012,2.904-1.216,5.76-2.376,6.6c-0.344,0.248-0.516,0.22-0.696,0.16
				c-1.584-0.524-1.656-4.436-1.724-7.892c-0.096-4.88-0.204-10.412-4.46-12.488c-1.568-0.768-3.336-0.744-4.968,0.048
				c-2.504,1.232-4.58,4.224-5.288,7.636c-0.444,2.124-0.504,4.248-0.564,6.312c-0.06,1.92-0.112,3.728-0.456,5.428
				c-0.396,1.936-1.584,3.84-2.76,4.428c-0.444,0.216-0.672,0.144-0.86,0.06c-1.904-0.896-1.956-6.228-1.98-8.5
				c-0.032-3.344-0.936-7.708-3.372-9.912c-1.144-1.036-2.52-1.5-4-1.384c-4.08,0.36-5.452,4.696-6.548,8.172
				c-0.696,2.212-1.568,4.96-2.72,5.304c-0.124,0.044-0.28,0.076-0.608-0.168c-1.072-0.824-2.176-3.488-2.108-6.148
				c0.028-1.236,0.324-2.264,0.608-3.256c0.572-1.996,1.36-4.736-1.712-7.244c-4.52-3.68-169.904-0.492-183.984-0.144
				C8.168,162.454,14.716,156.658,22.64,156.658z M241.544,258.582H51.968c-14.252,0-26.412-19.064-27.984-43.156h245.548
				C267.956,239.518,255.796,258.582,241.544,258.582z M286.884,192.778h-0.004c0,8.828-7.184,16.012-16.012,16.012h-21.592
				l15.18-21.156c0.752-1.052,0.516-2.512-0.536-3.268c-1.056-0.756-2.512-0.516-3.264,0.532l-17.144,23.888H168.04l12.456-19.768
				c0.692-1.096,0.36-2.536-0.732-3.228c-1.096-0.696-2.54-0.356-3.228,0.732L163.02,207.97c-0.16,0.256-0.256,0.532-0.312,0.816
				h-51.352l16.972-21.052c0.812-1.004,0.652-2.48-0.352-3.292c-1.016-0.812-2.484-0.648-3.292,0.356l-19.34,23.988H45.116
				l23.412-24.452c0.892-0.932,0.86-2.412-0.076-3.308c-0.928-0.888-2.412-0.86-3.308,0.076l-26.508,27.684H22.652
				c-8.832,0-16.016-7.184-16.016-16.012v-18.088c21.744-1.372,171.832-2.388,181.604-0.636c0.348,0.348,0.272,0.616-0.14,2.06
				c-0.332,1.156-0.744,2.584-0.788,4.424c-0.08,3.292,1.116,7.816,3.94,9.984c1.436,1.096,3.132,1.432,4.784,0.944
				c3.544-1.048,4.772-4.94,5.86-8.38c0.644-2.044,1.524-4.836,2.5-4.924c0.088,0,0.212-0.02,0.444,0.192
				c1.02,0.92,1.804,3.708,1.832,6.488c0.04,3.94,0.108,10.536,4.664,12.684c0.748,0.352,1.54,0.532,2.336,0.532
				c0.88,0,1.764-0.216,2.612-0.64c2.492-1.248,4.552-4.256,5.248-7.676c0.428-2.1,0.492-4.2,0.548-6.236
				c0.056-1.94,0.108-3.772,0.468-5.492c0.396-1.92,1.588-3.804,2.764-4.38c0.436-0.224,0.672-0.136,0.852-0.048
				c1.688,0.82,1.764,4.836,1.836,8.372c0.096,5.004,0.208,10.684,4.94,12.244c1.676,0.548,3.424,0.264,4.912-0.816
				c2.984-2.168,4.324-6.916,4.308-10.416c-0.028-4.972,1.652-10.368,3.444-11.1c4.644-1.876,19.712-1.568,31.808-1.32
				c3.24,0.064,6.332,0.116,9.272,0.144c0.08,0.652,0.2,1.296,0.2,1.972V192.778z"/>
			<path d="M40.544,96.038l-7.22,8.248c-0.848,0.972-0.752,2.448,0.224,3.3c0.444,0.388,0.992,0.58,1.54,0.58
				c0.652,0,1.3-0.272,1.764-0.8l7.22-8.248c0.848-0.972,0.752-2.448-0.224-3.3C42.872,94.97,41.396,95.062,40.544,96.038z"/>
			<path d="M77.912,84.014c0.312,0,0.628-0.064,0.932-0.196c1.184-0.516,1.728-1.892,1.208-3.076l-3.848-8.836
				c-0.516-1.184-1.896-1.728-3.084-1.208c-1.184,0.516-1.728,1.892-1.208,3.076l3.848,8.836
				C76.148,83.49,77.004,84.014,77.912,84.014z"/>
			<path d="M74.504,107.638c0.436,0.352,0.96,0.528,1.48,0.528c0.68,0,1.352-0.292,1.812-0.86l6.736-8.248
				c0.816-1,0.668-2.476-0.332-3.296c-1.008-0.812-2.48-0.668-3.292,0.332l-6.736,8.248C73.352,105.342,73.5,106.822,74.504,107.638
				z"/>
			<path d="M126.504,61.634c0.86,0,1.684-0.476,2.096-1.292c0.58-1.156,0.112-2.56-1.048-3.14l-10.584-5.3
				c-1.156-0.58-2.56-0.108-3.14,1.048c-0.58,1.156-0.112,2.56,1.048,3.14l10.584,5.3C125.796,61.558,126.152,61.634,126.504,61.634
				z"/>
			<path d="M120.264,87.194l-5.292,2.356c-1.184,0.528-1.712,1.912-1.188,3.088c0.392,0.872,1.244,1.392,2.144,1.392
				c0.316,0,0.64-0.064,0.948-0.204l5.292-2.352c1.18-0.528,1.712-1.912,1.188-3.088C122.832,87.202,121.452,86.666,120.264,87.194z
				"/>
			<path d="M100.524,70.498c-1.292,0-2.34,1.048-2.34,2.34s1.048,2.34,2.34,2.34h7.22c1.292,0,2.34-1.048,2.34-2.34
				c0-1.292-1.048-2.34-2.34-2.34H100.524z"/>
			<path d="M169.332,88.138c0.44,0,0.888-0.124,1.288-0.388l6.256-4.124c1.08-0.708,1.376-2.16,0.664-3.24
				c-0.708-1.076-2.16-1.384-3.244-0.664l-6.256,4.124c-1.08,0.708-1.376,2.164-0.664,3.24
				C167.824,87.77,168.572,88.138,169.332,88.138z"/>
			<path d="M158.744,58.982c0.304,0,0.616-0.06,0.912-0.184l6.256-2.648c1.188-0.508,1.744-1.876,1.24-3.068
				c-0.504-1.196-1.888-1.736-3.068-1.248l-6.256,2.648c-1.188,0.508-1.744,1.88-1.244,3.072
				C156.968,58.446,157.832,58.982,158.744,58.982z"/>
			<path d="M141.892,79.842c-1.012,0.804-1.184,2.276-0.376,3.292l3.276,4.124c0.464,0.58,1.144,0.884,1.836,0.884
				c0.512,0,1.024-0.164,1.456-0.508c1.012-0.804,1.18-2.276,0.376-3.292l-3.276-4.124C144.368,79.206,142.9,79.034,141.892,79.842z
				"/>
			<path d="M157.592,107.866l6.256,3.536c0.364,0.204,0.76,0.3,1.148,0.3c0.816,0,1.608-0.432,2.044-1.188
				c0.636-1.124,0.236-2.556-0.888-3.192l-6.256-3.532c-1.128-0.636-2.552-0.24-3.192,0.884
				C156.068,105.798,156.468,107.23,157.592,107.866z"/>
			<path d="M208.304,104.042c0.44,0,0.888-0.124,1.288-0.388l6.256-4.124c1.08-0.708,1.376-2.16,0.664-3.24
				c-0.712-1.076-2.16-1.384-3.244-0.664l-6.256,4.124c-1.08,0.708-1.376,2.164-0.664,3.24
				C206.796,103.674,207.544,104.042,208.304,104.042z"/>
			<path d="M209.94,62.926c-0.924-0.912-2.404-0.896-3.308,0.028l-5.78,5.888c-0.904,0.924-0.888,2.404,0.036,3.308
				c0.456,0.448,1.048,0.672,1.64,0.672c0.604,0,1.208-0.232,1.672-0.7l5.776-5.888C210.88,65.314,210.864,63.834,209.94,62.926z"/>
			<path d="M242.956,96.258l-4.812-7.068c-0.724-1.072-2.18-1.348-3.252-0.616c-1.068,0.728-1.348,2.18-0.616,3.248l4.812,7.068
				c0.456,0.672,1.188,1.028,1.936,1.028c0.452,0,0.912-0.132,1.316-0.408C243.408,98.782,243.688,97.33,242.956,96.258z"/>
			<path d="M234.96,103.846c-1.088,0.684-1.42,2.132-0.732,3.228l4.812,7.652c0.444,0.704,1.204,1.092,1.984,1.092
				c0.424,0,0.856-0.112,1.24-0.36c1.096-0.684,1.424-2.128,0.736-3.224l-4.812-7.656C237.5,103.49,236.056,103.158,234.96,103.846z
				"/>
		</g>
	</g>
</g>
</svg>